name Walk4.mot
datacolumns 19
datarows 30
range 2.48200000 2.51100000
endheader

                time	   L_ground_force_vx	   L_ground_force_vy	   L_ground_force_vz	   L_ground_force_px	   L_ground_force_py	   L_ground_force_pz	   R_ground_force_vx	   R_ground_force_vy	   R_ground_force_vz	   R_ground_force_px	   R_ground_force_py	   R_ground_force_pz	   L_ground_torque_x	   L_ground_torque_y	   L_ground_torque_z	   R_ground_torque_x	   R_ground_torque_y	   R_ground_torque_z	
          2.48200000	          0.00000000	          0.00000000	          0.00000000	          0.00000000	          0.00000000	          0.00000000	        -34.01227449	        667.29781544	        -38.23367057	          0.11737441	          0.00000000	          0.08516341	          0.00000000	          0.00000000	          0.00000000	          0.00000000	          5.62801970	          0.00000000	
          2.48300000	          0.00000000	          0.00000000	          0.00000000	          0.00000000	          0.00000000	          0.00000000	        -33.55345945	        666.24047316	        -38.25704918	          0.11754819	          0.00000000	          0.08516918	          0.00000000	          0.00000000	          0.00000000	          0.00000000	          5.59764563	          0.00000000	
          2.48400000	          0.00000000	          0.00000000	          0.00000000	          0.00000000	          0.00000000	          0.00000000	        -33.10161945	        665.22032724	        -38.26968643	          0.11774481	          0.00000000	          0.08515307	          0.00000000	          0.00000000	          0.00000000	          0.00000000	          5.56455686	          0.00000000	
          2.48500000	          0.00000000	          0.00000000	          0.00000000	          0.00000000	          0.00000000	          0.00000000	        -32.67214345	        664.25966846	        -38.25872508	          0.11795210	          0.00000000	          0.08514240	          0.00000000	          0.00000000	          0.00000000	          0.00000000	          5.52901380	          0.00000000	
          2.48600000	          0.00000000	          0.00000000	          0.00000000	          0.00000000	          0.00000000	          0.00000000	        -32.26943851	        663.32799517	        -38.22085218	          0.11813821	          0.00000000	          0.08515227	          0.00000000	          0.00000000	          0.00000000	          0.00000000	          5.48849112	          0.00000000	
          2.48700000	          0.00000000	          0.00000000	          0.00000000	          0.00000000	          0.00000000	          0.00000000	        -31.87818840	        662.34680807	        -38.17092304	          0.11827583	          0.00000000	          0.08517772	          0.00000000	          0.00000000	          0.00000000	          0.00000000	          5.44333336	          0.00000000	
          2.48800000	          0.00000000	          0.00000000	          0.00000000	          0.00000000	          0.00000000	          0.00000000	        -31.47585352	        661.27108646	        -38.12950600	          0.11837992	          0.00000000	          0.08521999	          0.00000000	          0.00000000	          0.00000000	          0.00000000	          5.39675936	          0.00000000	
          2.48900000	          0.00000000	          0.00000000	          0.00000000	          0.00000000	          0.00000000	          0.00000000	        -31.04927205	        660.13558214	        -38.10839314	          0.11849984	          0.00000000	          0.08529296	          0.00000000	          0.00000000	          0.00000000	          0.00000000	          5.35448647	          0.00000000	
          2.49000000	          0.00000000	          0.00000000	          0.00000000	          0.00000000	          0.00000000	          0.00000000	        -30.60187700	        659.00530179	        -38.10955220	          0.11865957	          0.00000000	          0.08539667	          0.00000000	          0.00000000	          0.00000000	          0.00000000	          5.32336679	          0.00000000	
          2.49100000	          0.00000000	          0.00000000	          0.00000000	          0.00000000	          0.00000000	          0.00000000	        -30.15367099	        657.91818039	        -38.12547737	          0.11882415	          0.00000000	          0.08551212	          0.00000000	          0.00000000	          0.00000000	          0.00000000	          5.30473647	          0.00000000	
          2.49200000	          0.00000000	          0.00000000	          0.00000000	          0.00000000	          0.00000000	          0.00000000	        -29.73107059	        656.88761289	        -38.13873250	          0.11894118	          0.00000000	          0.08562549	          0.00000000	          0.00000000	          0.00000000	          0.00000000	          5.29019574	          0.00000000	
          2.49300000	          0.00000000	          0.00000000	          0.00000000	          0.00000000	          0.00000000	          0.00000000	        -29.34398761	        655.91871166	        -38.12890689	          0.11899498	          0.00000000	          0.08573563	          0.00000000	          0.00000000	          0.00000000	          0.00000000	          5.27006323	          0.00000000	
          2.49400000	          0.00000000	          0.00000000	          0.00000000	          0.00000000	          0.00000000	          0.00000000	        -28.97538965	        654.99004389	        -38.08396066	          0.11899821	          0.00000000	          0.08583320	          0.00000000	          0.00000000	          0.00000000	          0.00000000	          5.24344491	          0.00000000	
          2.49500000	          0.00000000	          0.00000000	          0.00000000	          0.00000000	          0.00000000	          0.00000000	        -28.60170832	        654.04513175	        -38.00576172	          0.11896666	          0.00000000	          0.08588841	          0.00000000	          0.00000000	          0.00000000	          0.00000000	          5.21388581	          0.00000000	
          2.49600000	          0.00000000	          0.00000000	          0.00000000	          0.00000000	          0.00000000	          0.00000000	        -28.21330614	        653.02439194	        -37.90687901	          0.11893575	          0.00000000	          0.08587363	          0.00000000	          0.00000000	          0.00000000	          0.00000000	          5.18081826	          0.00000000	
          2.49700000	          0.00000000	          0.00000000	          0.00000000	          0.00000000	          0.00000000	          0.00000000	        -27.80947373	        651.90370109	        -37.80224135	          0.11896159	          0.00000000	          0.08579371	          0.00000000	          0.00000000	          0.00000000	          0.00000000	          5.14108526	          0.00000000	
          2.49800000	          0.00000000	          0.00000000	          0.00000000	          0.00000000	          0.00000000	          0.00000000	        -27.38838019	        650.72142295	        -37.70423606	          0.11907451	          0.00000000	          0.08568823	          0.00000000	          0.00000000	          0.00000000	          0.00000000	          5.09609702	          0.00000000	
          2.49900000	          0.00000000	          0.00000000	          0.00000000	          0.00000000	          0.00000000	          0.00000000	        -26.95218388	        649.56265406	        -37.62224599	          0.11924853	          0.00000000	          0.08560754	          0.00000000	          0.00000000	          0.00000000	          0.00000000	          5.05411413	          0.00000000	
          2.50000000	          0.00000000	          0.00000000	          0.00000000	          0.00000000	          0.00000000	          0.00000000	        -26.51666401	        648.49966505	        -37.55762526	          0.11942722	          0.00000000	          0.08558843	          0.00000000	          0.00000000	          0.00000000	          0.00000000	          5.02216314	          0.00000000	
          2.50100000	          0.00000000	          0.00000000	          0.00000000	          0.00000000	          0.00000000	          0.00000000	        -26.10540399	        647.55895394	        -37.50067205	          0.11957514	          0.00000000	          0.08564603	          0.00000000	          0.00000000	          0.00000000	          0.00000000	          4.99630352	          0.00000000	
          2.50200000	          0.00000000	          0.00000000	          0.00000000	          0.00000000	          0.00000000	          0.00000000	        -25.73082693	        646.73034413	        -37.43785326	          0.11970296	          0.00000000	          0.08577361	          0.00000000	          0.00000000	          0.00000000	          0.00000000	          4.96529123	          0.00000000	
          2.50300000	          0.00000000	          0.00000000	          0.00000000	          0.00000000	          0.00000000	          0.00000000	        -25.38564813	        645.98825191	        -37.35938602	          0.11985064	          0.00000000	          0.08594750	          0.00000000	          0.00000000	          0.00000000	          0.00000000	          4.92247841	          0.00000000	
          2.50400000	          0.00000000	          0.00000000	          0.00000000	          0.00000000	          0.00000000	          0.00000000	        -25.05381941	        645.32068746	        -37.25975336	          0.12005281	          0.00000000	          0.08614112	          0.00000000	          0.00000000	          0.00000000	          0.00000000	          4.86785277	          0.00000000	
          2.50500000	          0.00000000	          0.00000000	          0.00000000	          0.00000000	          0.00000000	          0.00000000	        -24.72163198	        644.74093054	        -37.13740393	          0.12031684	          0.00000000	          0.08633603	          0.00000000	          0.00000000	          0.00000000	          0.00000000	          4.80305413	          0.00000000	
          2.50600000	          0.00000000	          0.00000000	          0.00000000	          0.00000000	          0.00000000	          0.00000000	        -24.37666049	        644.25333357	        -36.99874905	          0.12062075	          0.00000000	          0.08651675	          0.00000000	          0.00000000	          0.00000000	          0.00000000	          4.73301876	          0.00000000	
          2.50700000	          0.00000000	          0.00000000	          0.00000000	          0.00000000	          0.00000000	          0.00000000	        -24.00711431	        643.81313560	        -36.85860814	          0.12091691	          0.00000000	          0.08666218	          0.00000000	          0.00000000	          0.00000000	          0.00000000	          4.66840239	          0.00000000	
          2.50800000	          0.00000000	          0.00000000	          0.00000000	          0.00000000	          0.00000000	          0.00000000	        -23.60887196	        643.33099581	        -36.73227638	          0.12114699	          0.00000000	          0.08675142	          0.00000000	          0.00000000	          0.00000000	          0.00000000	          4.61813977	          0.00000000	
          2.50900000	          0.00000000	          0.00000000	          0.00000000	          0.00000000	          0.00000000	          0.00000000	        -23.19480223	        642.69750299	        -36.62781245	          0.12126333	          0.00000000	          0.08677022	          0.00000000	          0.00000000	          0.00000000	          0.00000000	          4.57991959	          0.00000000	
          2.51000000	          0.00000000	          0.00000000	          0.00000000	          0.00000000	          0.00000000	          0.00000000	        -22.79302248	        641.82556834	        -36.54338469	          0.12123889	          0.00000000	          0.08671717	          0.00000000	          0.00000000	          0.00000000	          0.00000000	          4.54316816	          0.00000000	
          2.51100000	          0.00000000	          0.00000000	          0.00000000	          0.00000000	          0.00000000	          0.00000000	        -22.42283709	        640.73322757	        -36.47031657	          0.12109195	          0.00000000	          0.08662595	          0.00000000	          0.00000000	          0.00000000	          0.00000000	          4.50242682	          0.00000000	
